<mxfile host="Electron" agent="Mozilla/5.0 (Windows NT 10.0; Win64; x64) AppleWebKit/537.36 (KHTML, like Gecko) draw.io/24.7.17 Chrome/128.0.6613.36 Electron/32.0.1 Safari/537.36" version="24.7.17">
  <diagram id="R2lEEEUBdFMjLlhIrx00" name="Page-1">
    <mxGraphModel dx="784" dy="770" grid="1" gridSize="10" guides="1" tooltips="1" connect="1" arrows="1" fold="1" page="1" pageScale="1" pageWidth="850" pageHeight="1100" math="0" shadow="0" extFonts="Permanent Marker^https://fonts.googleapis.com/css?family=Permanent+Marker">
      <root>
        <mxCell id="0" />
        <mxCell id="1" parent="0" />
        <mxCell id="PTR7cAVYqw3V-Y_1MNSm-1" value="Parent Array (Level 3)" style="swimlane;fontStyle=0;childLayout=stackLayout;horizontal=1;startSize=26;horizontalStack=0;resizeParent=1;resizeParentMax=0;resizeLast=0;collapsible=1;marginBottom=0;align=center;fontSize=14;" vertex="1" parent="1">
          <mxGeometry x="570" y="130" width="190" height="270" as="geometry" />
        </mxCell>
        <mxCell id="PTR7cAVYqw3V-Y_1MNSm-2" value="Child Array&amp;nbsp;Slot 0" style="text;strokeColor=none;fillColor=none;spacingLeft=4;spacingRight=4;overflow=hidden;rotatable=0;points=[[0,0.5],[1,0.5]];portConstraint=eastwest;fontSize=12;whiteSpace=wrap;html=1;" vertex="1" parent="PTR7cAVYqw3V-Y_1MNSm-1">
          <mxGeometry y="26" width="190" height="30" as="geometry" />
        </mxCell>
        <mxCell id="PTR7cAVYqw3V-Y_1MNSm-3" value="Child Array&amp;nbsp;Slot 1" style="text;strokeColor=none;fillColor=none;spacingLeft=4;spacingRight=4;overflow=hidden;rotatable=0;points=[[0,0.5],[1,0.5]];portConstraint=eastwest;fontSize=12;whiteSpace=wrap;html=1;" vertex="1" parent="PTR7cAVYqw3V-Y_1MNSm-1">
          <mxGeometry y="56" width="190" height="34" as="geometry" />
        </mxCell>
        <mxCell id="PTR7cAVYqw3V-Y_1MNSm-4" value="Child Array&amp;nbsp;Slot 2" style="text;strokeColor=none;fillColor=none;spacingLeft=4;spacingRight=4;overflow=hidden;rotatable=0;points=[[0,0.5],[1,0.5]];portConstraint=eastwest;fontSize=12;whiteSpace=wrap;html=1;" vertex="1" parent="PTR7cAVYqw3V-Y_1MNSm-1">
          <mxGeometry y="90" width="190" height="30" as="geometry" />
        </mxCell>
        <mxCell id="PTR7cAVYqw3V-Y_1MNSm-12" value="Child Array&amp;nbsp;Slot 3" style="text;strokeColor=none;fillColor=none;spacingLeft=4;spacingRight=4;overflow=hidden;rotatable=0;points=[[0,0.5],[1,0.5]];portConstraint=eastwest;fontSize=12;whiteSpace=wrap;html=1;" vertex="1" parent="PTR7cAVYqw3V-Y_1MNSm-1">
          <mxGeometry y="120" width="190" height="30" as="geometry" />
        </mxCell>
        <mxCell id="PTR7cAVYqw3V-Y_1MNSm-13" value="Child Array&amp;nbsp;Slot 4" style="text;strokeColor=none;fillColor=none;spacingLeft=4;spacingRight=4;overflow=hidden;rotatable=0;points=[[0,0.5],[1,0.5]];portConstraint=eastwest;fontSize=12;whiteSpace=wrap;html=1;" vertex="1" parent="PTR7cAVYqw3V-Y_1MNSm-1">
          <mxGeometry y="150" width="190" height="30" as="geometry" />
        </mxCell>
        <mxCell id="PTR7cAVYqw3V-Y_1MNSm-14" value="Child Array&amp;nbsp;Slot 5" style="text;strokeColor=none;fillColor=none;spacingLeft=4;spacingRight=4;overflow=hidden;rotatable=0;points=[[0,0.5],[1,0.5]];portConstraint=eastwest;fontSize=12;whiteSpace=wrap;html=1;" vertex="1" parent="PTR7cAVYqw3V-Y_1MNSm-1">
          <mxGeometry y="180" width="190" height="30" as="geometry" />
        </mxCell>
        <mxCell id="PTR7cAVYqw3V-Y_1MNSm-15" value="Child Array Slot 6" style="text;strokeColor=none;fillColor=none;spacingLeft=4;spacingRight=4;overflow=hidden;rotatable=0;points=[[0,0.5],[1,0.5]];portConstraint=eastwest;fontSize=12;whiteSpace=wrap;html=1;" vertex="1" parent="PTR7cAVYqw3V-Y_1MNSm-1">
          <mxGeometry y="210" width="190" height="30" as="geometry" />
        </mxCell>
        <mxCell id="PTR7cAVYqw3V-Y_1MNSm-16" value="Child Array&amp;nbsp;Slot 7&lt;div&gt;&lt;br&gt;&lt;/div&gt;" style="text;strokeColor=none;fillColor=none;spacingLeft=4;spacingRight=4;overflow=hidden;rotatable=0;points=[[0,0.5],[1,0.5]];portConstraint=eastwest;fontSize=12;whiteSpace=wrap;html=1;" vertex="1" parent="PTR7cAVYqw3V-Y_1MNSm-1">
          <mxGeometry y="240" width="190" height="30" as="geometry" />
        </mxCell>
        <mxCell id="PTR7cAVYqw3V-Y_1MNSm-45" value="" style="edgeStyle=entityRelationEdgeStyle;endArrow=ERzeroToMany;startArrow=ERone;endFill=1;startFill=0;exitX=0;exitY=0.5;exitDx=0;exitDy=0;entryX=0.5;entryY=0;entryDx=0;entryDy=0;" edge="1" parent="1" source="PTR7cAVYqw3V-Y_1MNSm-2" target="PTR7cAVYqw3V-Y_1MNSm-64">
          <mxGeometry width="100" height="100" relative="1" as="geometry">
            <mxPoint x="630" y="153" as="sourcePoint" />
            <mxPoint x="513.75" y="400.27" as="targetPoint" />
            <Array as="points">
              <mxPoint x="200" y="350" />
              <mxPoint x="400" y="190" />
              <mxPoint x="290" y="240" />
            </Array>
          </mxGeometry>
        </mxCell>
        <mxCell id="PTR7cAVYqw3V-Y_1MNSm-64" value="Parent Array (Level 2)" style="swimlane;fontStyle=0;childLayout=stackLayout;horizontal=1;startSize=26;horizontalStack=0;resizeParent=1;resizeParentMax=0;resizeLast=0;collapsible=1;marginBottom=0;align=center;fontSize=14;" vertex="1" parent="1">
          <mxGeometry x="340" y="280" width="190" height="270" as="geometry" />
        </mxCell>
        <mxCell id="PTR7cAVYqw3V-Y_1MNSm-65" value="Child Array&amp;nbsp;Slot 0" style="text;strokeColor=none;fillColor=none;spacingLeft=4;spacingRight=4;overflow=hidden;rotatable=0;points=[[0,0.5],[1,0.5]];portConstraint=eastwest;fontSize=12;whiteSpace=wrap;html=1;" vertex="1" parent="PTR7cAVYqw3V-Y_1MNSm-64">
          <mxGeometry y="26" width="190" height="30" as="geometry" />
        </mxCell>
        <mxCell id="PTR7cAVYqw3V-Y_1MNSm-66" value="Child Array&amp;nbsp;Slot 1" style="text;strokeColor=none;fillColor=none;spacingLeft=4;spacingRight=4;overflow=hidden;rotatable=0;points=[[0,0.5],[1,0.5]];portConstraint=eastwest;fontSize=12;whiteSpace=wrap;html=1;" vertex="1" parent="PTR7cAVYqw3V-Y_1MNSm-64">
          <mxGeometry y="56" width="190" height="34" as="geometry" />
        </mxCell>
        <mxCell id="PTR7cAVYqw3V-Y_1MNSm-67" value="Child Array&amp;nbsp;Slot 2" style="text;strokeColor=none;fillColor=none;spacingLeft=4;spacingRight=4;overflow=hidden;rotatable=0;points=[[0,0.5],[1,0.5]];portConstraint=eastwest;fontSize=12;whiteSpace=wrap;html=1;" vertex="1" parent="PTR7cAVYqw3V-Y_1MNSm-64">
          <mxGeometry y="90" width="190" height="30" as="geometry" />
        </mxCell>
        <mxCell id="PTR7cAVYqw3V-Y_1MNSm-68" value="Child Array&amp;nbsp;Slot 3" style="text;strokeColor=none;fillColor=none;spacingLeft=4;spacingRight=4;overflow=hidden;rotatable=0;points=[[0,0.5],[1,0.5]];portConstraint=eastwest;fontSize=12;whiteSpace=wrap;html=1;" vertex="1" parent="PTR7cAVYqw3V-Y_1MNSm-64">
          <mxGeometry y="120" width="190" height="30" as="geometry" />
        </mxCell>
        <mxCell id="PTR7cAVYqw3V-Y_1MNSm-69" value="Child Array&amp;nbsp;Slot 4" style="text;strokeColor=none;fillColor=none;spacingLeft=4;spacingRight=4;overflow=hidden;rotatable=0;points=[[0,0.5],[1,0.5]];portConstraint=eastwest;fontSize=12;whiteSpace=wrap;html=1;" vertex="1" parent="PTR7cAVYqw3V-Y_1MNSm-64">
          <mxGeometry y="150" width="190" height="30" as="geometry" />
        </mxCell>
        <mxCell id="PTR7cAVYqw3V-Y_1MNSm-70" value="Child Array&amp;nbsp;Slot 5" style="text;strokeColor=none;fillColor=none;spacingLeft=4;spacingRight=4;overflow=hidden;rotatable=0;points=[[0,0.5],[1,0.5]];portConstraint=eastwest;fontSize=12;whiteSpace=wrap;html=1;" vertex="1" parent="PTR7cAVYqw3V-Y_1MNSm-64">
          <mxGeometry y="180" width="190" height="30" as="geometry" />
        </mxCell>
        <mxCell id="PTR7cAVYqw3V-Y_1MNSm-71" value="Child Array Slot 6" style="text;strokeColor=none;fillColor=none;spacingLeft=4;spacingRight=4;overflow=hidden;rotatable=0;points=[[0,0.5],[1,0.5]];portConstraint=eastwest;fontSize=12;whiteSpace=wrap;html=1;" vertex="1" parent="PTR7cAVYqw3V-Y_1MNSm-64">
          <mxGeometry y="210" width="190" height="30" as="geometry" />
        </mxCell>
        <mxCell id="PTR7cAVYqw3V-Y_1MNSm-72" value="Child Array&amp;nbsp;Slot 7&lt;div&gt;&lt;br&gt;&lt;/div&gt;" style="text;strokeColor=none;fillColor=none;spacingLeft=4;spacingRight=4;overflow=hidden;rotatable=0;points=[[0,0.5],[1,0.5]];portConstraint=eastwest;fontSize=12;whiteSpace=wrap;html=1;" vertex="1" parent="PTR7cAVYqw3V-Y_1MNSm-64">
          <mxGeometry y="240" width="190" height="30" as="geometry" />
        </mxCell>
        <mxCell id="PTR7cAVYqw3V-Y_1MNSm-73" value="Parent Array (Level 1)" style="swimlane;fontStyle=0;childLayout=stackLayout;horizontal=1;startSize=26;horizontalStack=0;resizeParent=1;resizeParentMax=0;resizeLast=0;collapsible=1;marginBottom=0;align=center;fontSize=14;" vertex="1" parent="1">
          <mxGeometry x="120" y="400" width="190" height="270" as="geometry" />
        </mxCell>
        <mxCell id="PTR7cAVYqw3V-Y_1MNSm-74" value="Child Array&amp;nbsp;Slot 0" style="text;strokeColor=none;fillColor=none;spacingLeft=4;spacingRight=4;overflow=hidden;rotatable=0;points=[[0,0.5],[1,0.5]];portConstraint=eastwest;fontSize=12;whiteSpace=wrap;html=1;" vertex="1" parent="PTR7cAVYqw3V-Y_1MNSm-73">
          <mxGeometry y="26" width="190" height="30" as="geometry" />
        </mxCell>
        <mxCell id="PTR7cAVYqw3V-Y_1MNSm-75" value="Child Array&amp;nbsp;Slot 1" style="text;strokeColor=none;fillColor=none;spacingLeft=4;spacingRight=4;overflow=hidden;rotatable=0;points=[[0,0.5],[1,0.5]];portConstraint=eastwest;fontSize=12;whiteSpace=wrap;html=1;" vertex="1" parent="PTR7cAVYqw3V-Y_1MNSm-73">
          <mxGeometry y="56" width="190" height="34" as="geometry" />
        </mxCell>
        <mxCell id="PTR7cAVYqw3V-Y_1MNSm-76" value="Child Array&amp;nbsp;Slot 2" style="text;strokeColor=none;fillColor=none;spacingLeft=4;spacingRight=4;overflow=hidden;rotatable=0;points=[[0,0.5],[1,0.5]];portConstraint=eastwest;fontSize=12;whiteSpace=wrap;html=1;" vertex="1" parent="PTR7cAVYqw3V-Y_1MNSm-73">
          <mxGeometry y="90" width="190" height="30" as="geometry" />
        </mxCell>
        <mxCell id="PTR7cAVYqw3V-Y_1MNSm-77" value="Child Array&amp;nbsp;Slot 3" style="text;strokeColor=none;fillColor=none;spacingLeft=4;spacingRight=4;overflow=hidden;rotatable=0;points=[[0,0.5],[1,0.5]];portConstraint=eastwest;fontSize=12;whiteSpace=wrap;html=1;" vertex="1" parent="PTR7cAVYqw3V-Y_1MNSm-73">
          <mxGeometry y="120" width="190" height="30" as="geometry" />
        </mxCell>
        <mxCell id="PTR7cAVYqw3V-Y_1MNSm-78" value="Child Array&amp;nbsp;Slot 4" style="text;strokeColor=none;fillColor=none;spacingLeft=4;spacingRight=4;overflow=hidden;rotatable=0;points=[[0,0.5],[1,0.5]];portConstraint=eastwest;fontSize=12;whiteSpace=wrap;html=1;" vertex="1" parent="PTR7cAVYqw3V-Y_1MNSm-73">
          <mxGeometry y="150" width="190" height="30" as="geometry" />
        </mxCell>
        <mxCell id="PTR7cAVYqw3V-Y_1MNSm-79" value="Child Array&amp;nbsp;Slot 5" style="text;strokeColor=none;fillColor=none;spacingLeft=4;spacingRight=4;overflow=hidden;rotatable=0;points=[[0,0.5],[1,0.5]];portConstraint=eastwest;fontSize=12;whiteSpace=wrap;html=1;" vertex="1" parent="PTR7cAVYqw3V-Y_1MNSm-73">
          <mxGeometry y="180" width="190" height="30" as="geometry" />
        </mxCell>
        <mxCell id="PTR7cAVYqw3V-Y_1MNSm-80" value="Child Array Slot 6" style="text;strokeColor=none;fillColor=none;spacingLeft=4;spacingRight=4;overflow=hidden;rotatable=0;points=[[0,0.5],[1,0.5]];portConstraint=eastwest;fontSize=12;whiteSpace=wrap;html=1;" vertex="1" parent="PTR7cAVYqw3V-Y_1MNSm-73">
          <mxGeometry y="210" width="190" height="30" as="geometry" />
        </mxCell>
        <mxCell id="PTR7cAVYqw3V-Y_1MNSm-81" value="Child Array&amp;nbsp;Slot 7&lt;div&gt;&lt;br&gt;&lt;/div&gt;" style="text;strokeColor=none;fillColor=none;spacingLeft=4;spacingRight=4;overflow=hidden;rotatable=0;points=[[0,0.5],[1,0.5]];portConstraint=eastwest;fontSize=12;whiteSpace=wrap;html=1;" vertex="1" parent="PTR7cAVYqw3V-Y_1MNSm-73">
          <mxGeometry y="240" width="190" height="30" as="geometry" />
        </mxCell>
        <mxCell id="PTR7cAVYqw3V-Y_1MNSm-82" value="" style="edgeStyle=entityRelationEdgeStyle;endArrow=ERzeroToMany;startArrow=ERone;endFill=1;startFill=0;exitX=0;exitY=0.5;exitDx=0;exitDy=0;entryX=0.25;entryY=0;entryDx=0;entryDy=0;" edge="1" parent="1" source="PTR7cAVYqw3V-Y_1MNSm-65" target="PTR7cAVYqw3V-Y_1MNSm-73">
          <mxGeometry width="100" height="100" relative="1" as="geometry">
            <mxPoint x="580" y="181" as="sourcePoint" />
            <mxPoint x="463" y="287" as="targetPoint" />
            <Array as="points">
              <mxPoint x="210" y="360" />
              <mxPoint x="410" y="200" />
              <mxPoint x="300" y="250" />
            </Array>
          </mxGeometry>
        </mxCell>
      </root>
    </mxGraphModel>
  </diagram>
</mxfile>
